<svg id="Layer_1" data-name="Layer 1" xmlns="http://www.w3.org/2000/svg" viewBox="0 0 2157.89 2500"><defs><style>.cls-1{fill:#fff;}</style></defs><path class="cls-1" d="M1064.12,604.86q207.11,0,363.37-161.75T1583.75,66.93q0-23.55-3.72-66.93-27.29,3.72-40.93,6.2-191,27.27-336.08,187.16t-145.1,342.09q0,21.06,6.2,69.41ZM1558.94,2500q147.58,0,326.17-202T2158,1823.25q-351-181-351-519.33,0-282.6,284-483.39-197.19-246.66-520.87-246.66-136.42,0-249.28,40.9l-47.12,17.36-63.25,24.79q-62,23.55-112.86,23.55-39.69,0-104.17-27.27l-48.37-19.83-45.88-18.6q-100.45-42.13-215.79-42.14-308.8,0-496.07,208.23T.05,1329.94q0,479.68,300.12,886.22Q508.52,2500,680.91,2500q73.17,0,145.1-28.51l60.76-24.79,48.37-17.35q101.7-35.94,187.27-35.94,90.52,0,208.35,45.86l38.44,14.87Q1489.49,2500,1558.94,2500Z" transform="translate(-0.05 0)"/></svg>