<svg id="Layer_1" data-name="Layer 1" xmlns="http://www.w3.org/2000/svg" viewBox="0 0 127.24 101.75"><defs><style>.cls-1{fill:#0f62f5;}.cls-2{fill:#6aa0f0;}.cls-3{fill:#5b5b5b;}.cls-4{fill:#fff;}.cls-5{fill:none;}</style></defs><path class="cls-1" d="M562.06,433.18c-1,3.83-4,4.64-7.29,4.65q-41.14.1-82.28,0c-5.36,0-8.39-3.44-8.55-8.95-.09-3.31,0-6.62,0-10.3l-4.64.95c-4.74,1-8.88-1.13-10.15-5.72q-6.33-22.93-12.24-46c-1.31-5.11,1-8.8,6.16-10.21,25.76-7,51.52-14,77.35-20.66,8.37-2.17,11.21-.15,13.42,8,1.78,6.55,3.45,13.14,5.29,19.67a18,18,0,0,1,.72,7.35,14.65,14.65,0,0,1-3.13-7.37c-.53-4.26-2.64-4.72-6.34-3.53-5,1.62-10.25,2.72-15.36,4.14-9.51,2.63-19,5.34-28.51,8,16.36.47,32.59.49,48.82.43,1.56,0,3.36.71,4.64-.9l2,1.2c5,2.19,10.25.68,15.38.9a2.5,2.5,0,0,0,.82-.48l.29.21-.48,2.2a30.21,30.21,0,0,0-4.37-.67q-39.89-.06-79.77,0c-5.61,0-7.64,2.18-7.66,8q-.06,21.43,0,42.88c0,6.49,2.05,8.6,8.73,8.61,25.93.07,51.85,0,77.77.05,3.79,0,6.89-.89,8.35-4.8A2,2,0,0,1,562.06,433.18Zm-123-66.49c-.39,4.1,2.09,3.62,5.31,2.75,27.74-7.51,55.49-15,83.3-22.25,4.47-1.17,3.87-3.37,2.24-6.05a5.62,5.62,0,0,0-6.89-2.56c-4.47,1.28-9,2.42-13.47,3.62q-32,8.55-64.05,17.1C441.88,360.27,438.81,361.65,439.05,366.69Zm94.87-11c0-4.86-2.48-6.9-7-5.68-16.63,4.44-33.23,9-49.86,13.43-10.87,2.91-21.74,5.8-32.64,8.6-5.71,1.47-1.9,5.53-2,8.13-.08,3.24,2.71,1.16,4.12.79,17.18-4.59,34.33-9.29,51.49-13.93,10.86-2.93,21.74-5.81,32.61-8.73C532.13,357.92,534.22,358.17,533.92,355.71Zm-70.09,23.56c-5.86,1.42-11.43,2.88-17.05,4.08-3.07.66-3.95,1.51-2.26,4.7,1.43,2.71,1.75,6,2.56,9.05,1.41,5.28,2.66,10.61,4.29,15.82,1.08,3.47,3.69,4.85,7.41,4.15,3.48-.66,5.32-1.95,5.17-6.14C463.58,400.5,463.83,390.05,463.83,379.27Z" transform="translate(-436.53 -336.14)"/><path class="cls-2" d="M540,372.76c-1.28,1.61-3.08.9-4.64.9-16.23.06-32.46,0-48.82-.43,9.5-2.67,19-5.38,28.51-8,5.11-1.42,10.32-2.52,15.36-4.14,3.7-1.19,5.81-.73,6.34,3.53a14.65,14.65,0,0,0,3.13,7.37A1,1,0,0,1,540,372.76Z" transform="translate(-436.53 -336.14)"/><path class="cls-1" d="M562.06,433.18a2,2,0,0,0-1-2.34c0-15.56-.08-31.11,0-46.67,0-3-.31-5.61-3-7.38l.48-2.2c4,1.26,5.21,4.43,5.23,8.09.09,15.38.06,30.75,0,46.13C563.7,430.37,563.81,432.18,562.06,433.18Z" transform="translate(-436.53 -336.14)"/><path class="cls-1" d="M557.37,374.86c-5.13-.22-10.36,1.29-15.38-.9l14.93.13C557.06,374.35,557.21,374.61,557.37,374.86Z" transform="translate(-436.53 -336.14)"/><path class="cls-3" d="M557.37,374.86c-.16-.25-.31-.51-.45-.77l1.27.29A2.5,2.5,0,0,1,557.37,374.86Z" transform="translate(-436.53 -336.14)"/><path class="cls-4" d="M558,376.79c2.72,1.77,3,4.41,3,7.38-.06,15.56,0,31.11,0,46.67-1.46,3.91-4.56,4.81-8.35,4.8-25.92,0-51.84,0-77.77-.05-6.68,0-8.72-2.12-8.73-8.61q-.06-21.45,0-42.88c0-5.81,2.05-8,7.66-8q39.88-.06,79.77,0A30.21,30.21,0,0,1,558,376.79Zm-14.28,37.4c1.83,0,3.65,0,5.48,0,5.34-.13,7.2-2.12,7.34-7.77.16-6.33-1.81-9-7.08-9.23-4-.17-8-.13-12,0s-6.4,2.14-6.65,6.45c-.51,8.85,1,10.57,9.88,10.57Zm-48.93,10,0,1h15.68l-.06-1Zm-22.27-.11,0,1.11h15.36l0-1.11Zm44.67.13,0,1.55a99.08,99.08,0,0,0,15.41-.14l0-1.41Zm22.11,0,0,1.12h15.44l0-1.12Z" transform="translate(-436.53 -336.14)"/><path class="cls-2" d="M439.05,366.69c-.24-5,2.83-6.42,6.44-7.39q32-8.52,64.05-17.1c4.49-1.2,9-2.34,13.47-3.62a5.62,5.62,0,0,1,6.89,2.56c1.63,2.68,2.23,4.88-2.24,6.05-27.81,7.25-55.56,14.74-83.3,22.25C441.14,370.31,438.66,370.79,439.05,366.69Z" transform="translate(-436.53 -336.14)"/><path class="cls-5" d="M533.92,355.71c.3,2.46-1.79,2.21-3.29,2.61-10.87,2.92-21.75,5.8-32.61,8.73-17.16,4.64-34.31,9.34-51.49,13.93-1.41.37-4.2,2.45-4.12-.79.06-2.6-3.75-6.66,2-8.13,10.9-2.8,21.77-5.69,32.64-8.6,16.63-4.46,33.23-9,49.86-13.43C531.44,348.81,533.94,350.85,533.92,355.71Z" transform="translate(-436.53 -336.14)"/><path class="cls-2" d="M463.83,379.27c0,10.78-.25,21.23.12,31.66.15,4.19-1.69,5.48-5.17,6.14-3.72.7-6.33-.68-7.41-4.15-1.63-5.21-2.88-10.54-4.29-15.82-.81-3-1.13-6.34-2.56-9.05-1.69-3.19-.81-4,2.26-4.7C452.4,382.15,458,380.69,463.83,379.27Z" transform="translate(-436.53 -336.14)"/><path class="cls-1" d="M543.72,414.19h-3c-8.85,0-10.39-1.72-9.88-10.57.25-4.31,2.56-6.33,6.65-6.45s8-.16,12,0c5.27.21,7.24,2.9,7.08,9.23-.14,5.65-2,7.64-7.34,7.77C547.37,414.23,545.55,414.19,543.72,414.19Zm.15-14.47c-1.82,0-3.65.09-5.46,0-4.66-.27-5.41,2.48-5.4,6.33s1,6.13,5.27,6c3-.12,6,0,8.94,0,6.24,0,6.49-.52,6.79-6.33.28-5.16-2.29-6.34-6.67-5.93C546.19,399.8,545,399.71,543.87,399.72Z" transform="translate(-436.53 -336.14)"/><path class="cls-1" d="M494.79,424.16h15.67l.06,1H494.84Z" transform="translate(-436.53 -336.14)"/><path class="cls-1" d="M472.52,424.05h15.36l0,1.11H472.56Z" transform="translate(-436.53 -336.14)"/><path class="cls-1" d="M517.19,424.18h15.43l0,1.41a99.08,99.08,0,0,1-15.41.14Z" transform="translate(-436.53 -336.14)"/><path class="cls-1" d="M539.3,424.17h15.45l0,1.12H539.34Z" transform="translate(-436.53 -336.14)"/><path class="cls-1" d="M543.87,399.72c1.16,0,2.32.08,3.47,0,4.38-.41,6.95.77,6.67,5.93-.3,5.81-.55,6.31-6.79,6.33-3,0-6-.09-8.94,0-4.29.17-5.27-2.2-5.27-6s.74-6.6,5.4-6.33C540.22,399.81,542.05,399.72,543.87,399.72Z" transform="translate(-436.53 -336.14)"/></svg>