<svg id="Layer_1" data-name="Layer 1" xmlns="http://www.w3.org/2000/svg" viewBox="0 0 19.62 24.89"><defs><style>.cls-1{fill:#181818;}.cls-2{fill:#dadada;}</style></defs><path class="cls-1" d="M560,371.14c0,3.3,0,6.61-.05,9.92,0,1.63-.71,2.38-2.42,2.38q-7.35,0-14.72-.07c-1.68,0-2.39-.78-2.39-2.42q0-10.05.12-20.09c0-1.59.7-2.31,2.34-2.31q7.42,0,14.85.08c1.62,0,2.32.75,2.31,2.33,0,3.4,0,6.79,0,10.18Zm-.67,6.2h0c0-1.2,0-2.4,0-3.59,0-.79-.15-1.13-1.05-1.08-1.2.07-2.41,0-3.61,0-.34,0-.87-.24-.95.32s-.21.95.31,1.24c1.28.69,1.27,1.81,1.21,3s0,2.32,0,3.47c0,2.14,0,2.14,2.25,2.08,1.28,0,1.77-.5,1.8-1.74S559.29,378.58,559.3,377.34Zm-18.18-12.76h0c0,1.32,0,2.65,0,4,0,.68.26.85.89.84,1.25,0,2.49,0,3.74,0,.34,0,.85.22,1-.3s.17-1-.32-1.23c-1.29-.69-1.26-1.81-1.2-3s0-2.39,0-3.59c0-2.26,0-2.25-2.36-2.12-1.14.06-1.73.58-1.71,1.71S541.13,363.34,541.12,364.58Zm18.25.1c0-1.23,0-2.47,0-3.71s-.54-1.7-1.81-1.74c-.47,0-1,0-1.42,0-.71-.08-.87.23-.85.85,0,1.49,0,3,0,4.46,0,1.3.24,2.66-1.3,3.45-.44.23-.34.75-.25,1.14s.62.31,1,.32c1.2,0,2.41,0,3.61,0,.76,0,1.07-.15,1-1C559.31,367.25,559.36,366,559.37,364.68Zm-18.31,12.6c0,1.24,0,2.47,0,3.71s.49,1.69,1.79,1.73c.47,0,.95,0,1.41,0,.69.07.89-.19.87-.84,0-1.44,0-2.88,0-4.33,0-1.29-.27-2.66,1.29-3.45.51-.26.33-.84.25-1.24s-.58-.21-.88-.22c-1.29,0-2.57,0-3.86-.06-.68,0-.89.21-.87.85C541.1,374.72,541.06,376,541.06,377.28Zm8.83-13.88V362c0-3,0-3-3.14-2.88-.77,0-.93.3-.91,1,0,1.57,0,3.14,0,4.71,0,2.4.53,2.88,3,2.87.75,0,1.09-.13,1-.94C549.82,365.64,549.88,364.52,549.89,363.4Zm.71,0h0c0,1.16,0,2.31,0,3.47,0,.27-.14.72.21.75a4.5,4.5,0,0,0,2.65-.12,1.83,1.83,0,0,0,1.17-1.88,33.47,33.47,0,0,1,0-3.47c0-3.08,0-3.06-3.18-3-.7,0-.87.24-.84.86C550.65,361.16,550.61,362.27,550.6,363.39Zm-.79,15.15c0-.83,0-1.66,0-2.49,0-2,.32-1.63-1.78-1.68a2.14,2.14,0,0,0-2.25,1.74c0,2,0,4,0,6,0,.95.74.76,1.15.64,1-.28,2.22.84,2.88-.58.09-.17,0-.41,0-.61C549.8,380.52,549.81,379.53,549.81,378.54Zm.72-.07v1.36c0,3.09,0,3.06,3.16,3,.71,0,.86-.25.86-.86,0-1.82,0-3.64,0-5.45a1.88,1.88,0,0,0-.78-1.58,2.72,2.72,0,0,0-1.77-.53c-1.15-.13-1.65.18-1.51,1.37A22.6,22.6,0,0,1,550.53,378.47ZM553,371.1c0-2.73,0-2.73-2.71-2.75s-2.86,0-2.87,2.73,0,2.7,2.79,2.7S553,373.78,553,371.1Zm-9.08-1h0c-.69,0-1.38,0-2.06,0s-.8.38-.78.93-.12,1.08.78,1.05c1.37,0,2.74,0,4.11,0,.69,0,.72-.29.78-.81.1-.9-.16-1.3-1.17-1.16A13.13,13.13,0,0,1,543.92,370.06Zm12.65.06h0a17.76,17.76,0,0,1-1.93,0c-.86-.1-.95.31-1,1s.17,1,1,1a33.48,33.48,0,0,1,3.47,0c.79,0,1.21-.05,1.23-1s-.55-1-1.27-1C557.6,370.15,557.08,370.12,556.57,370.12Z" transform="translate(-540.39 -358.55)"/><path class="cls-2" d="M559.3,377.34c0,1.24,0,2.48,0,3.72s-.52,1.7-1.8,1.74c-2.26.06-2.26.06-2.25-2.08,0-1.15,0-2.31,0-3.47s.07-2.31-1.21-3c-.52-.29-.38-.81-.31-1.24s.61-.32.95-.32c1.2,0,2.41.05,3.61,0,.9-.05,1.1.29,1.05,1.08-.07,1.19,0,2.39,0,3.59Z" transform="translate(-540.39 -358.55)"/><path class="cls-2" d="M541.12,364.58c0-1.24,0-2.48,0-3.72s.57-1.65,1.71-1.71c2.38-.13,2.37-.14,2.36,2.12,0,1.2,0,2.4,0,3.59s-.09,2.31,1.2,3c.49.27.43.79.32,1.23s-.64.3-1,.3c-1.25,0-2.49,0-3.74,0-.63,0-.92-.16-.89-.84.06-1.32,0-2.65,0-4Z" transform="translate(-540.39 -358.55)"/><path class="cls-2" d="M559.37,364.68c0,1.28-.06,2.57,0,3.84,0,.8-.28,1-1,1-1.2-.06-2.41,0-3.61,0-.35,0-.85.21-1-.32s-.19-.91.25-1.14c1.54-.79,1.3-2.15,1.3-3.45,0-1.49,0-3,0-4.46,0-.62.14-.93.85-.85.47.05,1,0,1.42,0,1.27,0,1.79.52,1.81,1.74S559.38,363.45,559.37,364.68Z" transform="translate(-540.39 -358.55)"/><path class="cls-2" d="M541.06,377.28c0-1.28,0-2.56,0-3.83,0-.64.19-.88.87-.85,1.29.06,2.57,0,3.86.06.3,0,.78-.23.88.22s.26,1-.25,1.24c-1.56.79-1.28,2.16-1.29,3.45,0,1.45,0,2.89,0,4.33,0,.65-.18.91-.87.84-.46-.05-.94,0-1.41,0-1.3,0-1.78-.5-1.79-1.73S541.05,378.52,541.06,377.28Z" transform="translate(-540.39 -358.55)"/><path class="cls-2" d="M549.89,363.4c0,1.12-.07,2.24,0,3.35.06.81-.28.94-1,.94-2.48,0-3-.47-3-2.87,0-1.57,0-3.14,0-4.71,0-.66.14-.94.91-1,3.16-.08,3.15-.11,3.14,2.88C549.9,362.49,549.89,362.94,549.89,363.4Z" transform="translate(-540.39 -358.55)"/><path class="cls-2" d="M550.6,363.39c0-1.12,0-2.23,0-3.35,0-.62.14-.84.84-.86,3.19-.1,3.19-.12,3.18,3a33.47,33.47,0,0,0,0,3.47,1.83,1.83,0,0,1-1.17,1.88,4.5,4.5,0,0,1-2.65.12c-.35,0-.21-.48-.21-.75,0-1.16,0-2.31,0-3.47Z" transform="translate(-540.39 -358.55)"/><path class="cls-2" d="M549.81,378.54c0,1,0,2,0,3,0,.2.07.44,0,.61-.66,1.42-1.93.3-2.88.58-.41.12-1.17.31-1.15-.64,0-2,0-4,0-6a2.14,2.14,0,0,1,2.25-1.74c2.1.05,1.76-.32,1.78,1.68C549.84,376.88,549.82,377.71,549.81,378.54Z" transform="translate(-540.39 -358.55)"/><path class="cls-2" d="M550.53,378.47a22.6,22.6,0,0,0,0-2.73c-.14-1.19.36-1.5,1.51-1.37a2.72,2.72,0,0,1,1.77.53,1.88,1.88,0,0,1,.78,1.58c-.06,1.81-.06,3.63,0,5.45,0,.61-.15.84-.86.86-3.18.1-3.17.13-3.16-3Z" transform="translate(-540.39 -358.55)"/><path class="cls-2" d="M553,371.1c0,2.68,0,2.68-2.79,2.68s-2.81,0-2.79-2.7,0-2.74,2.87-2.73S553,368.37,553,371.1Z" transform="translate(-540.39 -358.55)"/><path class="cls-2" d="M543.92,370.06a13.13,13.13,0,0,0,1.66,0c1-.14,1.27.26,1.17,1.16-.06.52-.09.84-.78.81-1.37,0-2.74-.06-4.11,0-.9,0-.77-.51-.78-1.05s0-1,.78-.93,1.37,0,2.06,0Z" transform="translate(-540.39 -358.55)"/><path class="cls-2" d="M556.57,370.12c.51,0,1,0,1.54,0,.72,0,1.29-.09,1.27,1s-.44,1.05-1.23,1a33.48,33.48,0,0,0-3.47,0c-.83,0-1-.27-1-1s.1-1.09,1-1a17.76,17.76,0,0,0,1.93,0Z" transform="translate(-540.39 -358.55)"/></svg>