<svg id="Layer_1" data-name="Layer 1" xmlns="http://www.w3.org/2000/svg" viewBox="0 0 341.56 341.53"><defs><style>.cls-1{fill:#a4a9b8;}</style></defs><path class="cls-1" d="M371.78,310.8c-6.5,0-13,.05-19.49,0-14-.14-22.86-8.91-23-22.75q-.15-20,0-40c.11-13.65,8.93-22.58,22.49-22.71s27-.14,40.47,0,22.29,8.94,22.46,22.23q.27,20.47,0,41c-.17,13.28-9.11,22-22.47,22.24C385.44,310.89,378.61,310.8,371.78,310.8Z" transform="translate(-329.24 -225.23)"/><path class="cls-1" d="M500.29,225.32c6.66,0,13.32-.09,20,0,13.33.21,22.25,9,22.42,22.27q.25,20.47,0,41c-.17,13.08-9,22-22,22.17q-20.73.31-41.47,0c-13-.21-21.78-9.17-21.93-22.25q-.23-20.48,0-41c.16-13.24,9.14-22,22.5-22.18C486.63,225.24,493.46,225.32,500.29,225.32Z" transform="translate(-329.24 -225.23)"/><path class="cls-1" d="M585.22,267.74c0-6.66-.09-13.32,0-20,.22-13.33,9-22.25,22.3-22.41q20.47-.22,41,0c13.06.16,22,9,22.15,22q.3,20.73,0,41.47c-.2,12.79-9,21.66-21.76,21.89q-21,.36-42,0c-12.75-.24-21.39-9.2-21.67-22C585.09,281.73,585.22,274.74,585.22,267.74Z" transform="translate(-329.24 -225.23)"/><path class="cls-1" d="M329.3,395.68c0-6.66-.09-13.32,0-20,.21-13.33,9-22.25,22.3-22.4q20.47-.24,41,0c13.06.17,22,9,22.14,22q.31,20.73,0,41.47c-.2,12.78-9,21.66-21.77,21.88q-21,.38-42,0c-12.75-.25-21.38-9.21-21.66-22C329.18,409.68,329.3,402.68,329.3,395.68Z" transform="translate(-329.24 -225.23)"/><path class="cls-1" d="M457.26,395.64c0-6.67-.09-13.33,0-20,.22-13.31,9-22.21,22.34-22.35,13.66-.15,27.32-.18,41,0,13,.18,21.92,9,22.1,22.07q.3,20.73,0,41.47c-.21,12.78-9,21.63-21.81,21.85-13.82.23-27.65.2-41.47,0-13.06-.19-21.84-9.06-22.12-22.08C457.14,409.63,457.26,402.63,457.26,395.64Z" transform="translate(-329.24 -225.23)"/><path class="cls-1" d="M585.21,395.75c0-6.5-.05-13,0-19.49.13-13.95,8.9-22.86,22.74-23q20-.17,40,0c13.66.1,22.58,8.89,22.72,22.47s.15,27,0,40.47-9,22.37-22.72,22.49q-20,.16-40,0c-13.85-.12-22.62-9.05-22.75-23C585.16,409.07,585.21,402.41,585.21,395.75Z" transform="translate(-329.24 -225.23)"/><path class="cls-1" d="M372.28,481.21c6.67,0,13.33-.09,20,0,13.35.2,22.3,8.94,22.47,22.22q.27,20.49,0,41c-.17,13.28-9.1,22.09-22.46,22.23s-27,.15-40.47,0-22.38-9.08-22.49-22.72q-.15-20,0-40c.11-13.84,9-22.61,23-22.74C359,481.16,365.62,481.21,372.28,481.21Z" transform="translate(-329.24 -225.23)"/><path class="cls-1" d="M457.26,524c0-6.66-.07-13.33,0-20,.16-13.65,8.93-22.59,22.48-22.72s27-.13,40.48,0,22.3,8.93,22.47,22.21q.27,20.49,0,41c-.17,13.28-9.1,22.09-22.46,22.23s-27,.15-40.48,0-22.33-9.08-22.49-22.72C457.19,537.27,457.26,530.61,457.26,524Z" transform="translate(-329.24 -225.23)"/><path class="cls-1" d="M585.21,523.45c0-6.5-.06-13,0-19.49.16-13.65,8.92-22.59,22.48-22.72s27-.13,40.47,0,22.3,8.93,22.48,22.21q.26,20.49,0,41c-.17,13.28-9.11,22.09-22.47,22.23s-27,.15-40.47,0-22.33-9.08-22.49-22.72C585.15,537.11,585.21,530.28,585.21,523.45Z" transform="translate(-329.24 -225.23)"/></svg>