<svg id="Layer_1" data-name="Layer 1" xmlns="http://www.w3.org/2000/svg" viewBox="0 0 704.32 443.57"><defs><style>.cls-1{fill:#fff;}.cls-2{fill:#f79e1b;}.cls-3{fill:#eb001b;}</style></defs><path class="cls-1" d="M490,158.33c-34.1-27.09-72.76-42.45-115.77-46.44a204.8,204.8,0,0,0-60.4,3.38c-41.43,8.49-77.76,27.32-108.22,57.2-40.5,39.71-62.68,88.43-66.93,145.48a214.23,214.23,0,0,0,5.3,65.66c11.06,46.54,34.16,85.75,69.79,117,36.43,32,78.89,49.54,126.8,53.26a206,206,0,0,0,61.3-4.48,214.55,214.55,0,0,0,88.07-42.14,6.35,6.35,0,0,1,2.79,1.65q61.13,46.76,137.57,45.34a193.85,193.85,0,0,0,42.63-5.42c64.42-15.85,112.74-53.37,144.2-112.73,19.3-36.42,27.22-75.64,24.77-117a218.42,218.42,0,0,0-8.41-49c-12.65-43.12-35.82-79.29-69.86-108-37.33-31.5-80.44-48.23-128.78-50.88a205.32,205.32,0,0,0-50.64,3.69,214.54,214.54,0,0,0-83.58,35.72C497,153.17,493.49,155.76,490,158.33Z" transform="translate(-138.01 -110.94)"/><path class="cls-2" d="M490,158.33c3.54-2.56,7.06-5.15,10.63-7.67a214.54,214.54,0,0,1,83.58-35.72,205.32,205.32,0,0,1,50.64-3.69c48.34,2.65,91.45,19.38,128.78,50.88,34,28.71,57.21,64.88,69.86,108a218.42,218.42,0,0,1,8.41,49c2.45,41.37-5.47,80.59-24.77,117-31.46,59.36-79.78,96.88-144.2,112.73a193.85,193.85,0,0,1-42.63,5.42q-76.49,1.53-137.57-45.34a6.35,6.35,0,0,0-2.79-1.65,3,3,0,0,0-1.16-1.53c-3.09-2.62-6.28-5.13-9.19-7.94-8.19-7.94-16.27-16-23.41-25a226.83,226.83,0,0,1-23.1-35.3,220.92,220.92,0,0,1-22.86-68.47c-.94-6-1.57-12-2.16-18.07-.62-6.3-.77-12.62-.76-18.87a181.93,181.93,0,0,1,.8-18.53c.74-6.93,1.55-13.82,2.74-20.67a221.45,221.45,0,0,1,72.63-128.58C485.7,162.43,488.33,160.92,490,158.33Z" transform="translate(-138.01 -110.94)"/><path class="cls-3" d="M490,158.33c-1.62,2.6-4.25,4.11-6.48,6a221.21,221.21,0,0,0-72.68,128.58c-1.19,6.85-2,13.74-2.74,20.67a181.93,181.93,0,0,0-.8,18.53c0,6.25.14,12.57.76,18.87.59,6,1.22,12.07,2.16,18.07A220.8,220.8,0,0,0,433,437.51a226.83,226.83,0,0,0,23.1,35.3c7.14,9,15.22,17,23.41,25,2.91,2.81,6.1,5.32,9.19,7.94a3,3,0,0,1,1.16,1.53,214.55,214.55,0,0,1-88.07,42.14,206,206,0,0,1-61.3,4.48c-47.91-3.72-90.37-21.29-126.8-53.26-35.63-31.26-58.73-70.47-69.79-117A214.23,214.23,0,0,1,138.6,318c4.25-57.05,26.43-105.77,66.93-145.48,30.46-29.88,66.79-48.71,108.22-57.2a204.8,204.8,0,0,1,60.4-3.38A214,214,0,0,1,490,158.33Z" transform="translate(-138.01 -110.94)"/></svg>