<svg id="Layer_1" data-name="Layer 1" xmlns="http://www.w3.org/2000/svg" viewBox="0 0 500 388.28"><defs><style>.cls-1{fill:#ea001b;}.cls-2{fill:#f69d1b;}.cls-3{fill:#fdfdfd;}.cls-4{fill:#fefefd;}.cls-5{fill:#030303;}.cls-6{fill:#fe5a00;}</style></defs><path class="cls-1" d="M250,414V396c.5-.3.33-.8.35-1.23a151.36,151.36,0,0,1,7.72-39.23A154.66,154.66,0,0,1,445.28,256a151.78,151.78,0,0,1,54.43,27.39,2.2,2.2,0,0,1-.88,1.25,156.6,156.6,0,0,0-21.24,20.83,152.3,152.3,0,0,0-28.07,49.48,149.48,149.48,0,0,0-8.18,52.85c.16,5.77.49,11.5,1.19,17.23A153.21,153.21,0,0,0,461,480.75a153.88,153.88,0,0,0,21.27,29.18A165.47,165.47,0,0,0,500,526.32c-.35.3-.68.6-1,.88a153.12,153.12,0,0,1-71.42,30.43,150.72,150.72,0,0,1-65.83-4.38c-39.6-11.74-69.92-35.55-90.9-71.07a149.38,149.38,0,0,1-19.66-59C250.74,420.1,250.83,417,250,414Z" transform="translate(-250 -250.08)"/><path class="cls-2" d="M750,394.47v21.07c-.48.31-.33.81-.36,1.24A146.69,146.69,0,0,1,747,435.67c-7.15,34.31-23.81,63.18-50.4,86-33.41,28.67-72.4,40.72-116.19,36.93a147.76,147.76,0,0,1-59-18.2,128.17,128.17,0,0,1-21-14,10.31,10.31,0,0,1,1.17-1.29,151.57,151.57,0,0,0,21.61-21.22,148.51,148.51,0,0,0,19-28.63,151.87,151.87,0,0,0,13-35.95,162,162,0,0,0,3.85-33.48,159.28,159.28,0,0,0-1.46-21.48,151.51,151.51,0,0,0-20.22-58.18A156.09,156.09,0,0,0,505.34,288c-1.7-1.46-3.68-2.63-5-4.51.34-.3.67-.63,1-.9A154.68,154.68,0,0,1,748.9,386.07C749.25,388.87,749.16,391.73,750,394.47Z" transform="translate(-250 -250.08)"/><path class="cls-3" d="M500.35,526.38a128.17,128.17,0,0,0,21,14,147.76,147.76,0,0,0,59,18.2c43.79,3.79,82.78-8.26,116.19-36.93,26.59-22.81,43.25-51.68,50.4-86a146.69,146.69,0,0,0,2.62-18.89c0-.43-.12-.93.36-1.24q0,110.5,0,221c0,1.46-.33,1.8-1.79,1.79-13.74-.06-27.47,0-41.21,0,2.46-.84,5.12-1.22,7.17-3,.89-.79,1.74-1.62,2.83-2.64,0,1.36.06,2.4,0,3.43s.28,1.48,1.41,1.42a49.81,49.81,0,0,1,5.86,0c1.51.11,1.82-.43,1.81-1.85-.07-8.13,0-16.25,0-24.38,0-9.88,0-19.76,0-29.65,0-1.24-.28-1.73-1.6-1.66a52.07,52.07,0,0,1-5.86,0c-1.29-.07-1.64.34-1.62,1.62.07,5.85,0,11.71,0,17.56,0,.57.29,1.26-.32,1.76-6-6.69-14.81-6.45-21-3.71-8.65,3.8-13.57,13.43-11.91,23.2,1.41,8.3,5.88,14.1,14,16.94,1,.36,2.17.24,3.06,1H623.81c3.85-.86,7.49-2.1,10.22-6,0,1.67.06,2.76,0,3.84s.35,1.34,1.34,1.3c1.69-.07,3.39,0,5.08,0,2.61,0,2.61,0,2.61-2.52V614.7c0-5.65,0-11.3,0-17,0-1.19-.31-1.59-1.53-1.53a58,58,0,0,1-6,0c-1.27-.07-1.54.41-1.5,1.56a6.75,6.75,0,0,1-.23,3.23c-4.83-5.32-10.78-6.51-17.35-5a20.59,20.59,0,0,0-15.87,21.46c.48,9.8,5.69,17.09,14.16,19.87,1.08.36,2.27.3,3.24,1H585.14c.16-.4.51-.31.82-.34a20,20,0,0,0,9-3.38c1.15-.73,1.24-1.34.48-2.43a38,38,0,0,1-2.56-4.36c-.58-1.13-1.06-1.52-2.27-.61a14.76,14.76,0,0,1-3.78,2c-8.84,3.29-16.68-1.18-18-10.21-1.11-7.66,3.31-14,10.83-15.2,4-.67,7.72.65,11,2.88,1,.68,1.46.61,2-.47.87-1.66,1.84-3.28,2.87-4.85.6-.92.43-1.4-.44-2a21.08,21.08,0,0,0-10.51-3.75c-12.85-1.2-23.27,5.54-24.76,18.51-1.17,10.17,3.61,20,14.55,23.28,1.09.32,2.3.21,3.25,1H505.86c.12-.43.47-.34.78-.37a26.26,26.26,0,0,0,10.91-3.88c1.5-.92,2-1.72.7-3.22a18.17,18.17,0,0,1-2.17-3.22c-.61-1.09-1.1-1.42-2.3-.56a19.53,19.53,0,0,1-8.45,3.3c-7.39,1.19-13.44-2.76-14.56-9.66h2.13c8.79,0,17.57,0,26.36,0,1.59,0,2-.46,1.87-1.94-.14-2.39,0-4.79-.38-7.19-1.32-8.28-6.81-14.41-14.31-15.82-9-1.69-17.47,1.84-21.76,9.07a24.09,24.09,0,0,0-3,14A19.88,19.88,0,0,0,496,637.37c1.08.32,2.29.23,3.26,1H467.58c1.77-.53,3.56-1,5.3-1.6,3.18-1.12,3.16-1.16,2.14-4.25l-.8-2.4c-.76-2.3-.75-2.27-3.08-1.4a17.08,17.08,0,0,1-2.8.77c-6,1.13-8.64-1-8.69-7,0-5.45.05-10.91,0-16.37,0-1.45.49-1.68,1.78-1.65,3.77.08,7.55,0,11.32,0,1.1,0,1.65-.12,1.56-1.44a38.47,38.47,0,0,1,0-5.26c.07-1.19-.29-1.54-1.51-1.51-3.71.08-7.42-.08-11.12.08-1.71.07-2-.51-2-2.06.13-3,0-6,.06-9,0-1-.22-1.53-1.39-1.48-2.07.08-4.16.08-6.24,0-1.12,0-1.45.32-1.43,1.43.07,3.11-.05,6.24.06,9.35,0,1.41-.43,1.78-1.76,1.69-1.68-.1-3.38,0-5.07,0-.94,0-1.44.13-1.39,1.25.09,1.94.07,3.9,0,5.84,0,.86.24,1.13,1.1,1.1,1.75-.06,3.52.08,5.26,0,1.45-.11,1.87.32,1.85,1.81-.06,6.56-.19,13.13.11,19.68.34,7.52,4.24,11,9.55,12,.26.05.49.11.56.42H420.71c.22-.63.77-.32,1.17-.38a19.48,19.48,0,0,0,10-4.06,11.3,11.3,0,0,0-1.67-18.71,23.44,23.44,0,0,0-8.49-2.65c-2.83-.39-5.72-.36-8.44-1.38-1.28-.48-2.38-1.17-2.49-2.68a3.67,3.67,0,0,1,1.91-3.59,9.65,9.65,0,0,1,4.64-1.28,26.42,26.42,0,0,1,12.63,2.77c1.13.52,1.68.43,2.19-.76a36.67,36.67,0,0,1,2.43-4.65c.68-1.07.35-1.51-.62-2.06a29.32,29.32,0,0,0-13.07-3.44c-4.87-.29-9.65.15-13.89,2.85a11.67,11.67,0,0,0-5.68,11.23c.3,4.74,3.13,7.64,7.37,9.39a27.45,27.45,0,0,0,7.73,1.85c2.85.29,5.71.54,8.33,1.84,2.82,1.4,3.06,4,.56,6a8.3,8.3,0,0,1-3.74,1.55,23,23,0,0,1-16.47-3.1c-1-.59-1.48-.66-2.08.46a45.11,45.11,0,0,1-2.9,4.61c-.54.78-.42,1.14.37,1.65a30.19,30.19,0,0,0,7.82,3.39c1.52.46,3.19.33,4.61,1.16H372.28c2.68-.83,5.5-1.32,7.65-3.34.77-.72,1.47-1.51,2.44-2.51,0,1.54.07,2.65,0,3.74s.31,1.34,1.32,1.3c2.08-.07,4.17-.1,6.25,0,1.27.07,1.48-.43,1.47-1.56,0-6,0-12,0-17.94,0-6.76,0-13.51,0-20.27,0-1.2-.31-1.59-1.52-1.53-2.08.1-4.17.09-6.25,0-1.07,0-1.34.38-1.28,1.36s0,2.25,0,3.58c-6.21-5.4-11.16-6.78-17.85-5.12-8.6,2.13-14.07,8.44-15.53,17.9a21.19,21.19,0,0,0,14,23.39c1,.33,2.18.23,3,1q-57.18,0-114.37,0c-1.5,0-1.66-.41-1.66-1.73q.06-111.33,0-222.65c.8,3,.71,6.12,1.07,9.18a149.38,149.38,0,0,0,19.66,59c21,35.52,51.3,59.33,90.9,71.07a150.72,150.72,0,0,0,65.83,4.38,153.12,153.12,0,0,0,71.42-30.43c.36-.28.69-.58,1-.88ZM284,601.08c0-1.28-.07-2.37,0-3.44s-.31-1.46-1.42-1.42c-2.08.09-4.16.07-6.25,0-.95,0-1.38.16-1.37,1.26q0,19.41,0,38.82c0,.94.29,1.23,1.23,1.2a55.5,55.5,0,0,1,6.05,0c1.54.11,1.79-.47,1.78-1.86-.07-7,0-13.92,0-20.88a14.35,14.35,0,0,1,.87-5.35c1.51-3.83,5.2-5.81,10-5.43,4,.32,6.57,2.66,7.52,6.73a20.21,20.21,0,0,1,.4,4.65c0,6.83,0,13.66,0,20.48,0,1.25.28,1.73,1.6,1.65a47.74,47.74,0,0,1,5.86,0c1.3.07,1.62-.36,1.6-1.63-.06-6.17,0-12.35,0-18.53a30,30,0,0,1,.35-5.83c.94-4.72,4.62-7.59,9.7-7.54,4.71,0,7.8,2.66,8.56,7.4a29,29,0,0,1,.29,4.47q0,10,0,20.09c0,1.12.19,1.63,1.48,1.57,2.4-.11,4.81-.09,7.22,0,1.07,0,1.29-.35,1.28-1.33,0-8.59.14-17.17-.1-25.75-.18-6.32-3-11.31-9.13-13.73-6.76-2.64-16.15-1.5-21.19,5.3a4.53,4.53,0,0,1-.54.53C304.41,594,290.94,592.65,284,601.08Zm256.4-.28-.42-.25c0-1-.07-2.06,0-3.09s-.34-1.31-1.33-1.27c-2.08.07-4.17.07-6.25,0-1,0-1.48.18-1.48,1.36q.06,19.31,0,38.59c0,1.05.34,1.35,1.35,1.32,2.08-.06,4.17-.11,6.24,0,1.3.08,1.49-.46,1.47-1.57-.07-2.86-.06-5.72,0-8.58.08-5.25-.32-10.53.23-15.77.59-5.57,3.87-8.29,9.47-8a13.18,13.18,0,0,1,3.07.47c1.13.35,1.62.09,1.91-1a45.6,45.6,0,0,1,1.72-5.77c.56-1.45-.09-1.65-1.23-1.74C549.45,595,544.05,595.42,540.38,600.8Zm123.69.62c0-1.77,0-2.87,0-4,0-.86-.12-1.29-1.15-1.26-2.21.08-4.42.09-6.63,0-1.12,0-1.25.44-1.25,1.37q0,19.22,0,38.42c0,1.25.37,1.56,1.55,1.5a41.45,41.45,0,0,1,5.46,0c1.6.14,2.08-.32,2.06-2-.1-6.88,0-13.78-.05-20.67a22.82,22.82,0,0,1,.41-4.45c.93-4.56,3.93-7,8.56-6.81a22.53,22.53,0,0,1,4.24.58c.87.19,1.13,0,1.34-.82.56-2,1.11-4,1.86-5.94.58-1.45,0-1.74-1.25-1.86C673.4,594.94,668,595.51,664.07,601.42Z" transform="translate(-250 -250.08)"/><path class="cls-4" d="M750,394.47c-.8-2.74-.71-5.6-1.06-8.4A154.53,154.53,0,0,0,501.36,282.54c-.36.27-.69.6-1,.89l-.62-.09A151.78,151.78,0,0,0,445.28,256,154.66,154.66,0,0,0,258.1,355.57a151.36,151.36,0,0,0-7.72,39.23c0,.43.15.93-.35,1.23q0-72.15,0-144.31c0-1.26.15-1.64,1.56-1.64q248.43.06,496.88,0c1.41,0,1.56.38,1.56,1.64Q749.94,323.09,750,394.47Z" transform="translate(-250 -250.08)"/><path class="cls-5" d="M700.75,638.32c-.89-.73-2-.61-3.06-1-8.09-2.84-12.56-8.64-14-16.94-1.66-9.77,3.26-19.4,11.91-23.2,6.22-2.74,15-3,21,3.71.61-.5.32-1.19.32-1.76,0-5.85.06-11.71,0-17.56,0-1.28.33-1.69,1.62-1.62a52.07,52.07,0,0,0,5.86,0c1.32-.07,1.61.42,1.6,1.66,0,9.89,0,19.77,0,29.65,0,8.13,0,16.25,0,24.38,0,1.42-.3,2-1.81,1.85a49.81,49.81,0,0,0-5.86,0c-1.13.06-1.49-.33-1.41-1.42s0-2.07,0-3.43c-1.09,1-1.94,1.85-2.83,2.64-2,1.8-4.71,2.18-7.17,3Zm-7.82-21.6c0,7.73,5.32,13.41,12.65,13.42,6.83,0,12.23-5.82,12.28-13.22,0-7.61-5.18-13.26-12.3-13.32C698.2,603.52,693,609,692.93,616.72Z" transform="translate(-250 -250.08)"/><path class="cls-5" d="M366,638.32c-.87-.76-2-.66-3-1a21.19,21.19,0,0,1-14-23.39c1.46-9.46,6.93-15.77,15.53-17.9,6.69-1.66,11.64-.28,17.85,5.12,0-1.33.06-2.46,0-3.58s.21-1.4,1.28-1.36c2.08.09,4.17.1,6.25,0,1.21-.06,1.53.33,1.52,1.53-.06,6.76,0,13.51,0,20.27,0,6,0,12,0,17.94,0,1.13-.2,1.63-1.47,1.56-2.08-.11-4.17-.08-6.25,0-1,0-1.4-.25-1.32-1.3s0-2.2,0-3.74c-1,1-1.67,1.79-2.44,2.51-2.15,2-5,2.51-7.65,3.34ZM382.8,616.9c0-7.72-5.23-13.31-12.49-13.31s-12.39,5.47-12.45,13.14,5.4,13.41,12.7,13.41C377.39,630.14,382.78,624.31,382.8,616.9Z" transform="translate(-250 -250.08)"/><path class="cls-5" d="M618,638.32c-1-.69-2.16-.63-3.24-1-8.47-2.78-13.68-10.07-14.16-19.87A20.59,20.59,0,0,1,616.42,596c6.57-1.5,12.52-.31,17.35,5a6.75,6.75,0,0,0,.23-3.23c0-1.15.23-1.63,1.5-1.56a58,58,0,0,0,6,0c1.22-.06,1.54.34,1.53,1.53-.06,5.65,0,11.3,0,17V635c0,2.52,0,2.52-2.61,2.52-1.69,0-3.39,0-5.08,0-1,0-1.42-.24-1.34-1.3s0-2.17,0-3.84c-2.73,3.85-6.37,5.09-10.22,6Zm16.93-21.45c0-6-3-10.82-8.1-12.51-4.89-1.63-9.49-1-13.1,2.85-4.17,4.41-4.66,9.77-2.56,15.23,1.92,5,6,7.42,11.21,7.66C629.36,630.42,634.87,624.5,634.88,616.87Z" transform="translate(-250 -250.08)"/><path class="cls-5" d="M499.22,638.32c-1-.72-2.18-.63-3.26-1a19.88,19.88,0,0,1-14.3-18.45,24.09,24.09,0,0,1,3-14c4.29-7.23,12.74-10.76,21.76-9.07,7.5,1.41,13,7.54,14.31,15.82.38,2.4.24,4.8.38,7.19.09,1.48-.28,2-1.87,1.94-8.79-.08-17.57,0-26.36,0h-2.13c1.12,6.9,7.17,10.85,14.56,9.66a19.53,19.53,0,0,0,8.45-3.3c1.2-.86,1.69-.53,2.3.56a18.17,18.17,0,0,0,2.17,3.22c1.32,1.5.8,2.3-.7,3.22A26.26,26.26,0,0,1,506.64,638c-.31,0-.66-.06-.78.37ZM491.12,613h20.22c.51,0,1.16.26,1.08-.79a10.34,10.34,0,0,0-7-8.58C498.56,601.59,492.39,605.56,491.12,613Z" transform="translate(-250 -250.08)"/><path class="cls-5" d="M412.9,638.32c-1.42-.83-3.09-.7-4.61-1.16a30.19,30.19,0,0,1-7.82-3.39c-.79-.51-.91-.87-.37-1.65a45.11,45.11,0,0,0,2.9-4.61c.6-1.12,1.1-1,2.08-.46a23,23,0,0,0,16.47,3.1,8.3,8.3,0,0,0,3.74-1.55c2.5-1.94,2.26-4.59-.56-6-2.62-1.3-5.48-1.55-8.33-1.84a27.45,27.45,0,0,1-7.73-1.85c-4.24-1.75-7.07-4.65-7.37-9.39A11.67,11.67,0,0,1,407,598.3c4.24-2.7,9-3.14,13.89-2.85a29.32,29.32,0,0,1,13.07,3.44c1,.55,1.3,1,.62,2.06a36.67,36.67,0,0,0-2.43,4.65c-.51,1.19-1.06,1.28-2.19.76a26.42,26.42,0,0,0-12.63-2.77,9.65,9.65,0,0,0-4.64,1.28,3.67,3.67,0,0,0-1.91,3.59c.11,1.51,1.21,2.2,2.49,2.68,2.72,1,5.61,1,8.44,1.38a23.44,23.44,0,0,1,8.49,2.65,11.3,11.3,0,0,1,1.67,18.71,19.48,19.48,0,0,1-10,4.06c-.4.06-.95-.25-1.17.38Z" transform="translate(-250 -250.08)"/><path class="cls-5" d="M460.94,638.32c-.07-.31-.3-.37-.56-.42-5.31-1-9.21-4.52-9.55-12-.3-6.55-.17-13.12-.11-19.68,0-1.49-.4-1.92-1.85-1.81-1.74.13-3.51,0-5.26,0-.86,0-1.13-.24-1.1-1.1.06-1.94.08-3.9,0-5.84-.05-1.12.45-1.28,1.39-1.25,1.69.06,3.39-.06,5.07,0,1.33.09,1.81-.28,1.76-1.69-.11-3.11,0-6.24-.06-9.35,0-1.11.31-1.48,1.43-1.43,2.08.08,4.17.08,6.24,0,1.17,0,1.41.43,1.39,1.48-.06,3,.07,6-.06,9-.06,1.55.25,2.13,2,2.06,3.7-.16,7.41,0,11.12-.08,1.22,0,1.58.32,1.51,1.51a38.47,38.47,0,0,0,0,5.26c.09,1.32-.46,1.46-1.56,1.44-3.77-.06-7.55,0-11.32,0-1.29,0-1.8.2-1.78,1.65.1,5.46,0,10.92,0,16.37.05,6.05,2.7,8.17,8.69,7a17.08,17.08,0,0,0,2.8-.77c2.33-.87,2.32-.9,3.08,1.4l.8,2.4c1,3.09,1,3.13-2.14,4.25-1.74.62-3.53,1.07-5.3,1.6Z" transform="translate(-250 -250.08)"/><path class="cls-5" d="M577.72,638.32c-1-.77-2.16-.66-3.25-1-10.94-3.25-15.72-13.11-14.55-23.28,1.49-13,11.91-19.71,24.76-18.51a21.08,21.08,0,0,1,10.51,3.75c.87.61,1,1.09.44,2-1,1.57-2,3.19-2.87,4.85-.56,1.08-1,1.15-2,.47-3.32-2.23-7-3.55-11-2.88-7.52,1.25-11.94,7.54-10.83,15.2,1.29,9,9.13,13.5,18,10.21a14.76,14.76,0,0,0,3.78-2c1.21-.91,1.69-.52,2.27.61a38,38,0,0,0,2.56,4.36c.76,1.09.67,1.7-.48,2.43a20,20,0,0,1-9,3.38c-.31,0-.66-.06-.82.34Z" transform="translate(-250 -250.08)"/><path class="cls-6" d="M499.71,283.34l.62.09c1.33,1.89,3.31,3.06,5,4.52a156.09,156.09,0,0,1,31.92,38.2,151.51,151.51,0,0,1,20.22,58.18,159.28,159.28,0,0,1,1.46,21.48,162,162,0,0,1-3.85,33.48,151.87,151.87,0,0,1-13,35.95,148.51,148.51,0,0,1-19,28.63,151.57,151.57,0,0,1-21.61,21.22,10.31,10.31,0,0,0-1.17,1.29l-.4-.06a165.47,165.47,0,0,1-17.71-16.39A153.88,153.88,0,0,1,461,480.75,153.21,153.21,0,0,1,442.53,425c-.7-5.73-1-11.46-1.19-17.23a149.48,149.48,0,0,1,8.18-52.85,152.3,152.3,0,0,1,28.07-49.48,156.6,156.6,0,0,1,21.24-20.83A2.2,2.2,0,0,0,499.71,283.34Z" transform="translate(-250 -250.08)"/><path class="cls-5" d="M284,601.08c7-8.43,20.43-7,25.73,1.45a4.53,4.53,0,0,0,.54-.53c5-6.8,14.43-7.94,21.19-5.3,6.16,2.42,8.95,7.41,9.13,13.73.24,8.58.06,17.16.1,25.75,0,1-.21,1.37-1.28,1.33-2.41-.08-4.82-.1-7.22,0-1.29.06-1.49-.45-1.48-1.57q.06-10.05,0-20.09a29,29,0,0,0-.29-4.47c-.76-4.74-3.85-7.36-8.56-7.4-5.08,0-8.76,2.82-9.7,7.54a30,30,0,0,0-.35,5.83c0,6.18,0,12.36,0,18.53,0,1.27-.3,1.7-1.6,1.63a47.74,47.74,0,0,0-5.86,0c-1.32.08-1.61-.4-1.6-1.65.06-6.82,0-13.65,0-20.48a20.21,20.21,0,0,0-.4-4.65c-.95-4.07-3.53-6.41-7.52-6.73-4.83-.38-8.52,1.6-10,5.43a14.35,14.35,0,0,0-.87,5.35c0,7,0,13.92,0,20.88,0,1.39-.24,2-1.78,1.86a55.5,55.5,0,0,0-6.05,0c-.94,0-1.23-.26-1.23-1.2q0-19.41,0-38.82c0-1.1.42-1.29,1.37-1.26,2.09.06,4.17.08,6.25,0,1.11,0,1.52.3,1.42,1.42S284,599.8,284,601.08Z" transform="translate(-250 -250.08)"/><path class="cls-5" d="M540.38,600.8c3.67-5.38,9.07-5.79,14.76-5.31,1.14.09,1.79.29,1.23,1.74a45.6,45.6,0,0,0-1.72,5.77c-.29,1.14-.78,1.4-1.91,1a13.18,13.18,0,0,0-3.07-.47c-5.6-.32-8.88,2.4-9.47,8-.55,5.24-.15,10.52-.23,15.77-.05,2.86-.06,5.72,0,8.58,0,1.11-.17,1.65-1.47,1.57-2.07-.12-4.16-.07-6.24,0-1,0-1.35-.27-1.35-1.32q0-19.29,0-38.59c0-1.18.44-1.4,1.48-1.36,2.08.07,4.17.07,6.25,0,1,0,1.42.21,1.33,1.27s0,2.06,0,3.09Z" transform="translate(-250 -250.08)"/><path class="cls-5" d="M664.07,601.42c3.93-5.91,9.33-6.48,15.15-5.9,1.24.12,1.83.41,1.25,1.86-.75,1.93-1.3,3.94-1.86,5.94-.21.78-.47,1-1.34.82a22.53,22.53,0,0,0-4.24-.58c-4.63-.16-7.63,2.25-8.56,6.81a22.82,22.82,0,0,0-.41,4.45c0,6.89,0,13.79.05,20.67,0,1.66-.46,2.12-2.06,2a41.45,41.45,0,0,0-5.46,0c-1.18.06-1.56-.25-1.55-1.5q.08-19.2,0-38.42c0-.93.13-1.41,1.25-1.37,2.21.09,4.42.08,6.63,0,1,0,1.2.4,1.15,1.26C664,598.55,664.07,599.65,664.07,601.42Z" transform="translate(-250 -250.08)"/><path class="cls-3" d="M692.93,616.72c.05-7.76,5.27-13.2,12.63-13.12,7.12.06,12.34,5.71,12.3,13.32-.05,7.4-5.45,13.23-12.28,13.22C698.25,630.13,692.89,624.45,692.93,616.72Z" transform="translate(-250 -250.08)"/><path class="cls-3" d="M382.8,616.9c0,7.41-5.41,13.24-12.24,13.24-7.3,0-12.75-5.76-12.7-13.41s5.23-13.13,12.45-13.14S382.82,609.18,382.8,616.9Z" transform="translate(-250 -250.08)"/><path class="cls-3" d="M634.88,616.87c0,7.63-5.52,13.55-12.55,13.23-5.23-.24-9.29-2.68-11.21-7.66-2.1-5.46-1.61-10.82,2.56-15.23,3.61-3.83,8.21-4.48,13.1-2.85C631.83,606.05,634.88,610.89,634.88,616.87Z" transform="translate(-250 -250.08)"/><path class="cls-3" d="M491.12,613c1.27-7.41,7.44-11.38,14.33-9.38a10.34,10.34,0,0,1,7,8.58c.08,1.05-.57.79-1.08.79Z" transform="translate(-250 -250.08)"/></svg>