<svg id="Layer_1" data-name="Layer 1" xmlns="http://www.w3.org/2000/svg" viewBox="0 0 187.12 192.76"><defs><style>.cls-1{fill:#a8aaac;}.cls-2{fill:#292d32;}.cls-3{fill:#070f19;}.cls-4{fill:#2c3035;}.cls-5{fill:#2a2e33;}.cls-6{fill:#1e2329;}</style></defs><path class="cls-1" d="M538,386c0,30.45-.05,60.9,0,91.35,0,4.71-.95,8.64-5.51,10.76-4.32,2-7.94.52-11.46-2.32-4.39-3.55-9-6.86-13.6-10.1-5-3.53-9-3.24-13.4,1-4.92,4.73-9.63,9.67-14.51,14.44s-9.62,4.74-14.45.12-9.4-9.42-14.14-14.09C446,472.32,442.62,472,436.9,476c-4.74,3.36-9.38,6.88-14,10.43-3.29,2.53-6.79,3.53-10.66,1.62S407,483,407,478.71c.08-47.92,0-95.84.15-143.76.06-15.44,8.64-27,22.54-31.16A37,37,0,0,1,440.42,302l104.83,0c1.27,0,2.7-.45,3.71.82-9.66,6.25-11.44,15.46-11.12,26.27C538.4,348.06,538,367.05,538,386Zm-35-12.24c3.55-1.5,5.11-4.19,4.26-7.94-.92-4-3.95-5.53-7.82-5.54q-22,0-43.92,0c-3.82,0-7.66-.18-11.47.1-4.08.31-7.08,3.63-6.69,7.3.43,4,2.75,6.51,6.87,6.51,19.28,0,38.57-.15,57.86-.24h.47Zm-30.65,24.13c-6.47,0-12.95,0-19.42,0-5.25,0-8.58,2.76-8.61,6.91s3.29,7.06,8.52,7.08q19.68.1,39.36,0c5.32,0,8.23-2.74,8.15-7.25-.08-4.32-2.85-6.69-8.07-6.73C485.57,397.87,478.92,397.91,472.28,397.91Z" transform="translate(-406.96 -301.93)"/><path class="cls-2" d="M538,386c0-19,.43-38-.13-56.92-.32-10.81,1.46-20,11.12-26.27,23.57-4.39,42.68,11.6,44.77,32.28-1.84,6-.6,12.14-.71,18.2-.07,3.87-1.11,7.91.78,11.68-1.08,12.58-9.33,20.67-22,21C560.52,386.26,549.24,386,538,386Z" transform="translate(-406.96 -301.93)"/><path class="cls-3" d="M593.8,365c-1.89-3.77-.85-7.81-.78-11.68.11-6.06-1.13-12.2.71-18.2C594.24,345.07,594.13,355,593.8,365Z" transform="translate(-406.96 -301.93)"/><path class="cls-4" d="M502,374c-19.29.09-38.58.23-57.86.24-4.12,0-6.44-2.55-6.87-6.51-.39-3.67,2.61-7,6.69-7.3,3.81-.28,7.65-.1,11.47-.1q22,0,43.92,0c3.87,0,6.9,1.49,7.82,5.54.85,3.75-.71,6.44-4.26,7.94C502.52,373.32,502.24,373.47,502,374Z" transform="translate(-406.96 -301.93)"/><path class="cls-5" d="M472.28,397.91c6.64,0,13.29,0,19.93,0,5.22,0,8,2.41,8.07,6.73.08,4.51-2.83,7.23-8.15,7.25q-19.68.1-39.36,0c-5.23,0-8.54-2.9-8.52-7.08s3.36-6.87,8.61-6.91C459.33,397.88,465.81,397.91,472.28,397.91Z" transform="translate(-406.96 -301.93)"/><path class="cls-6" d="M502,374c.22-.49.5-.64.91-.18l-.44.19Z" transform="translate(-406.96 -301.93)"/></svg>