<svg id="Layer_1" data-name="Layer 1" xmlns="http://www.w3.org/2000/svg" viewBox="0 0 467.1 466.51"><defs><style>.cls-1{fill:#42a5f4;}.cls-2{fill:#e1f0fc;}</style></defs><path class="cls-1" d="M549.36,577.72c-2.7.06-3.65,2.07-4.93,3.48-13.61,15.09-27.27,30.14-40.67,45.41-2.94,3.34-4.45,3.49-7.47,0-13.05-14.92-26.51-29.47-39.55-44.39-3.27-3.75-6.08-4.85-11-3.23-19.11,6.26-38.45,11.85-57.58,18.05-4.66,1.51-5.93.28-6.89-4.12-4.21-19.33-8.87-38.56-13.08-57.88-.92-4.24-2.57-6.3-7-7.26-19.82-4.27-39.52-9.09-59.31-13.48-3.5-.78-4.22-1.78-3.11-5.29,6.35-20.14,12.35-40.38,18.71-60.52,1.06-3.38.56-5.43-2.08-7.76q-22.08-19.53-43.89-39.36c-7.12-6.47-6.95-4.49-.23-10.61Q293,371,315.08,351.44c2.75-2.42,3.42-4.52,2.26-8.15-6.34-20-12.27-40.06-18.57-60-1.14-3.6-.58-4.81,3.2-5.64,20-4.4,39.84-9.18,59.8-13.57,3.82-.84,5.41-2.58,6.23-6.32,4.41-20,9.19-39.84,13.59-59.8.84-3.86,2.24-4.29,5.73-3.19,20,6.29,40.07,12.25,60,18.63,3.69,1.18,5.74.39,8.14-2.31,13.7-15.45,27.61-30.72,41.29-46.19,2.49-2.82,3.85-3,6.44-.06,13.66,15.48,27.61,30.71,41.25,46.21,2.64,3,4.93,3.43,8.62,2.26,19.81-6.27,39.75-12.14,59.55-18.45,4-1.28,5.06-.28,5.9,3.52,4.34,19.64,9.07,39.19,13.35,58.84.9,4.14,2.58,6,6.79,6.91,19.49,4.21,38.88,8.91,58.37,13.13,4.55,1,5.42,2.5,4,7-6.34,19.79-12.25,39.72-18.49,59.54-1,3.16-.51,5.14,2,7.35,15.46,13.69,30.67,27.66,46.22,41.25,3.57,3.12,3.06,4.64-.15,7.47-15.25,13.42-30.23,27.15-45.48,40.59-2.91,2.57-3.6,4.78-2.39,8.57,6.22,19.47,12,39.09,18.24,58.57,1.45,4.52.72,6.27-4.1,7.31C677.37,519,658,523.71,638.49,528c-3.94.86-5.69,2.64-6.55,6.56-4.26,19.48-9,38.87-13.14,58.37-1,5-2.9,5.43-7.32,4-19.48-6.22-39.06-12.12-58.6-18.13Zm-81-77.86c.78-.7,1.66-1.42,2.47-2.23q84.42-84.4,168.9-168.75c2.77-2.76,2.4-4.27-.17-6.75-7.68-7.38-15.32-14.83-22.57-22.63-3.23-3.48-5-3-8.06.12q-68.38,68.67-136.9,137.18c-3.28,3.29-5,3.16-8.12-.06-17.26-17.58-34.82-34.87-52.14-52.4-2.57-2.6-4.11-2.85-6.76-.08-7.71,8.06-15.64,15.91-23.64,23.68-2.28,2.2-2.62,3.59-.11,5.92,5.25,4.86,10.18,10.06,15.25,15.12q34.08,34.09,68.18,68.15C465.73,498.15,466.51,499.57,468.38,499.86Z" transform="translate(-266.11 -162.67)"/><path class="cls-2" d="M468.38,499.86c-1.87-.29-2.65-1.71-3.67-2.73q-34.11-34-68.18-68.15c-5.07-5.06-10-10.26-15.25-15.12-2.51-2.33-2.17-3.72.11-5.92,8-7.77,15.93-15.62,23.64-23.68,2.65-2.77,4.19-2.52,6.76.08,17.32,17.53,34.88,34.82,52.14,52.4,3.16,3.22,4.84,3.35,8.12.06Q540.39,368.12,609,299.62c3.11-3.13,4.83-3.6,8.06-.12,7.25,7.8,14.89,15.25,22.57,22.63,2.57,2.48,2.94,4,.17,6.75q-84.54,84.28-168.9,168.75C470,498.44,469.16,499.16,468.38,499.86Z" transform="translate(-266.11 -162.67)"/></svg>